<?xml version="1.0" encoding="iso-8859-1"?>
<!-- Generator: Adobe Illustrator 19.0.0, SVG Export Plug-In . SVG Version: 6.00 Build 0)  -->
<svg version="1.1" id="Capa_1" xmlns="http://www.w3.org/2000/svg" xmlns:xlink="http://www.w3.org/1999/xlink" x="0px" y="0px"
	 viewBox="0 0 53.955 53.955" style="enable-background:new 0 0 53.955 53.955;" xml:space="preserve">
<g>
	<g>
		<path d="M49.978,18.955v4h-46v-4h-2v5v5v13v2v5c0,0.553,0.448,1,1,1h3v4h2v-4h38v4h2v-4h3c0.552,0,1-0.447,1-1v-5v-2v-13v-5v-5
			C51.978,18.955,49.978,18.955,49.978,18.955z M35.978,41.955v-17h6v17H35.978z M11.978,41.955v-17h6v17H11.978z M19.978,24.955h6
			v17h-6V24.955z M27.978,24.955h6v17h-6V24.955z M3.978,28.955v-4h6v17h-6V28.955z M49.978,47.955h-2h-2h-38h-2h-2v-4h46V47.955z
			 M49.978,41.955h-6v-17h6v4V41.955z"/>
		<path d="M11.001,13.922l-0.36,2.101c-0.064,0.375,0.09,0.754,0.398,0.978c0.309,0.225,0.718,0.254,1.053,0.076l1.886-0.991
			l1.886,0.991c0.146,0.077,0.306,0.115,0.465,0.115c0.207,0,0.414-0.065,0.588-0.191c0.308-0.224,0.462-0.603,0.398-0.978
			l-0.36-2.101l1.526-1.487c0.272-0.266,0.371-0.663,0.253-1.025c-0.118-0.361-0.431-0.625-0.808-0.68l-2.108-0.307l-0.943-1.91
			c-0.337-0.684-1.456-0.684-1.793,0l-0.943,1.91l-2.108,0.307c-0.377,0.055-0.69,0.318-0.808,0.68
			c-0.118,0.362-0.019,0.76,0.253,1.025L11.001,13.922z M12.945,12.326c0.326-0.047,0.607-0.252,0.753-0.547l0.279-0.565
			l0.279,0.565c0.146,0.295,0.427,0.5,0.753,0.547l0.623,0.091l-0.452,0.44c-0.235,0.229-0.343,0.561-0.288,0.885L15,14.363
			l-0.558-0.293c-0.146-0.077-0.306-0.115-0.465-0.115s-0.32,0.038-0.465,0.115l-0.558,0.293l0.106-0.621
			c0.055-0.324-0.052-0.655-0.288-0.885l-0.452-0.44L12.945,12.326z"/>
		<path d="M21.001,5.922l-0.36,2.101C20.577,8.397,20.731,8.776,21.039,9c0.309,0.225,0.718,0.255,1.053,0.076l1.886-0.991
			l1.886,0.991c0.146,0.077,0.306,0.115,0.465,0.115c0.207,0,0.414-0.064,0.588-0.191c0.308-0.224,0.462-0.602,0.398-0.977
			l-0.36-2.101l1.526-1.487c0.272-0.266,0.371-0.663,0.253-1.025c-0.118-0.361-0.431-0.625-0.808-0.68l-2.108-0.307l-0.943-1.91
			c-0.337-0.684-1.456-0.684-1.793,0l-0.943,1.91L20.03,2.73c-0.377,0.055-0.69,0.318-0.808,0.68
			c-0.118,0.362-0.02,0.76,0.253,1.025L21.001,5.922z M22.945,4.326c0.326-0.047,0.607-0.252,0.753-0.547l0.279-0.565l0.279,0.565
			c0.146,0.295,0.427,0.5,0.753,0.547l0.624,0.091l-0.452,0.44c-0.235,0.229-0.343,0.561-0.288,0.885L25,6.363L24.443,6.07
			c-0.145-0.077-0.306-0.115-0.465-0.115s-0.32,0.038-0.465,0.115l-0.558,0.293l0.106-0.621c0.055-0.324-0.052-0.655-0.288-0.885
			l-0.452-0.44L22.945,4.326z"/>
	</g>
</g>
<g>
</g>
<g>
</g>
<g>
</g>
<g>
</g>
<g>
</g>
<g>
</g>
<g>
</g>
<g>
</g>
<g>
</g>
<g>
</g>
<g>
</g>
<g>
</g>
<g>
</g>
<g>
</g>
<g>
</g>
</svg>
